<mxfile host="app.diagrams.net" modified="2021-06-24T12:39:31.362Z" agent="5.0 (Windows NT 10.0; WOW64) AppleWebKit/537.36 (KHTML, like Gecko) Chrome/91.0.4472.114 Safari/537.36" etag="oqLN8Ac0Np9SxJRK-bo7" version="14.8.0" type="github">
  <diagram id="K-tn9Yd1LHVPywu1zEuw" name="Page-1">
    <mxGraphModel dx="1108" dy="482" grid="1" gridSize="10" guides="1" tooltips="1" connect="1" arrows="1" fold="1" page="1" pageScale="1" pageWidth="850" pageHeight="1100" math="0" shadow="0">
      <root>
        <mxCell id="0" />
        <mxCell id="1" parent="0" />
        <mxCell id="khuDG4WZJWir9Sge9vWs-1" value="DOCKER HOST/DOCKER INSTALL IN MECHINE/DOCKER-D" style="rounded=1;whiteSpace=wrap;html=1;" vertex="1" parent="1">
          <mxGeometry x="130" y="360" width="640" height="60" as="geometry" />
        </mxCell>
        <mxCell id="khuDG4WZJWir9Sge9vWs-2" value="DOCKER BRIDGE DEFAULT NETWORK&lt;br&gt;OR&lt;br&gt;IN LINUX SYSTEM WE CALL AS LINUX BRIDGE(docker 0)" style="rounded=1;whiteSpace=wrap;html=1;" vertex="1" parent="1">
          <mxGeometry x="120" y="220" width="640" height="60" as="geometry" />
        </mxCell>
        <mxCell id="khuDG4WZJWir9Sge9vWs-3" value="C1 CONTAINER" style="rounded=1;whiteSpace=wrap;html=1;" vertex="1" parent="1">
          <mxGeometry x="140" y="100" width="120" height="60" as="geometry" />
        </mxCell>
        <mxCell id="khuDG4WZJWir9Sge9vWs-5" value="C2 CONTAINER" style="rounded=1;whiteSpace=wrap;html=1;" vertex="1" parent="1">
          <mxGeometry x="390" y="100" width="120" height="60" as="geometry" />
        </mxCell>
        <mxCell id="khuDG4WZJWir9Sge9vWs-6" value="C3 CONTAINER" style="rounded=1;whiteSpace=wrap;html=1;" vertex="1" parent="1">
          <mxGeometry x="620" y="100" width="120" height="60" as="geometry" />
        </mxCell>
        <mxCell id="khuDG4WZJWir9Sge9vWs-7" value="" style="endArrow=classic;html=1;exitX=0.128;exitY=-0.067;exitDx=0;exitDy=0;exitPerimeter=0;" edge="1" parent="1" source="khuDG4WZJWir9Sge9vWs-2">
          <mxGeometry width="50" height="50" relative="1" as="geometry">
            <mxPoint x="201" y="210" as="sourcePoint" />
            <mxPoint x="201" y="160" as="targetPoint" />
          </mxGeometry>
        </mxCell>
        <mxCell id="khuDG4WZJWir9Sge9vWs-9" value="" style="endArrow=classic;html=1;exitX=0.128;exitY=-0.067;exitDx=0;exitDy=0;exitPerimeter=0;" edge="1" parent="1">
          <mxGeometry width="50" height="50" relative="1" as="geometry">
            <mxPoint x="440.4200000000001" y="215.98000000000002" as="sourcePoint" />
            <mxPoint x="439.5" y="160" as="targetPoint" />
          </mxGeometry>
        </mxCell>
        <mxCell id="khuDG4WZJWir9Sge9vWs-10" value="" style="endArrow=classic;html=1;exitX=0.128;exitY=-0.067;exitDx=0;exitDy=0;exitPerimeter=0;" edge="1" parent="1">
          <mxGeometry width="50" height="50" relative="1" as="geometry">
            <mxPoint x="680.4200000000001" y="215.98000000000002" as="sourcePoint" />
            <mxPoint x="679.5" y="160" as="targetPoint" />
          </mxGeometry>
        </mxCell>
        <mxCell id="khuDG4WZJWir9Sge9vWs-11" value="SUBNET&lt;br&gt;GETWAY IP" style="ellipse;whiteSpace=wrap;html=1;" vertex="1" parent="1">
          <mxGeometry y="270" width="120" height="80" as="geometry" />
        </mxCell>
        <mxCell id="khuDG4WZJWir9Sge9vWs-12" value="" style="endArrow=none;html=1;" edge="1" parent="1">
          <mxGeometry width="50" height="50" relative="1" as="geometry">
            <mxPoint x="120" y="310" as="sourcePoint" />
            <mxPoint x="150" y="280" as="targetPoint" />
          </mxGeometry>
        </mxCell>
        <mxCell id="khuDG4WZJWir9Sge9vWs-13" value="when the bridge network created that time it will create subnet and getway ip ,for this subnet the conatiner will get the ip adress&amp;nbsp;" style="rounded=1;whiteSpace=wrap;html=1;" vertex="1" parent="1">
          <mxGeometry x="10" y="430" width="280" height="60" as="geometry" />
        </mxCell>
        <mxCell id="khuDG4WZJWir9Sge9vWs-14" value="" style="shape=flexArrow;endArrow=classic;html=1;entryX=0.558;entryY=1.05;entryDx=0;entryDy=0;entryPerimeter=0;" edge="1" parent="1" source="khuDG4WZJWir9Sge9vWs-13" target="khuDG4WZJWir9Sge9vWs-11">
          <mxGeometry width="50" height="50" relative="1" as="geometry">
            <mxPoint x="160" y="340" as="sourcePoint" />
            <mxPoint x="50" y="360" as="targetPoint" />
          </mxGeometry>
        </mxCell>
        <mxCell id="khuDG4WZJWir9Sge9vWs-15" value="eth0" style="rounded=1;whiteSpace=wrap;html=1;" vertex="1" parent="1">
          <mxGeometry x="640" y="320" width="110" height="30" as="geometry" />
        </mxCell>
        <mxCell id="khuDG4WZJWir9Sge9vWs-16" value="" style="endArrow=none;html=1;entryX=0;entryY=0.75;entryDx=0;entryDy=0;" edge="1" parent="1" target="khuDG4WZJWir9Sge9vWs-15">
          <mxGeometry width="50" height="50" relative="1" as="geometry">
            <mxPoint x="620" y="360" as="sourcePoint" />
            <mxPoint x="660" y="320" as="targetPoint" />
          </mxGeometry>
        </mxCell>
        <mxCell id="khuDG4WZJWir9Sge9vWs-17" value="this docker machine has Ethernet marked as eth o ,when every the packet on this it should fall on bridge from the bridge it will go to container&amp;nbsp;" style="rounded=1;whiteSpace=wrap;html=1;" vertex="1" parent="1">
          <mxGeometry x="580" y="440" width="240" height="60" as="geometry" />
        </mxCell>
        <mxCell id="khuDG4WZJWir9Sge9vWs-18" value="" style="shape=flexArrow;endArrow=classic;html=1;exitX=0;exitY=0.5;exitDx=0;exitDy=0;" edge="1" parent="1" source="khuDG4WZJWir9Sge9vWs-17">
          <mxGeometry width="50" height="50" relative="1" as="geometry">
            <mxPoint x="570" y="470" as="sourcePoint" />
            <mxPoint x="540" y="430" as="targetPoint" />
            <Array as="points">
              <mxPoint x="540" y="430" />
            </Array>
          </mxGeometry>
        </mxCell>
        <mxCell id="khuDG4WZJWir9Sge9vWs-19" value="communication" style="html=1;shadow=0;dashed=0;align=center;verticalAlign=middle;shape=mxgraph.arrows2.twoWayArrow;dy=0.65;dx=22;" vertex="1" parent="1">
          <mxGeometry x="260" y="100" width="130" height="60" as="geometry" />
        </mxCell>
        <mxCell id="khuDG4WZJWir9Sge9vWs-20" value="communication" style="html=1;shadow=0;dashed=0;align=center;verticalAlign=middle;shape=mxgraph.arrows2.twoWayArrow;dy=0.65;dx=22;" vertex="1" parent="1">
          <mxGeometry x="510" y="100" width="110" height="60" as="geometry" />
        </mxCell>
        <mxCell id="khuDG4WZJWir9Sge9vWs-21" value="conatiner on same bridge can communication with other&amp;nbsp;" style="text;html=1;strokeColor=none;fillColor=none;align=center;verticalAlign=middle;whiteSpace=wrap;rounded=0;" vertex="1" parent="1">
          <mxGeometry x="210" y="170" width="220" height="30" as="geometry" />
        </mxCell>
        <mxCell id="khuDG4WZJWir9Sge9vWs-22" value="conatiner on same bridge can communication with other&amp;nbsp;" style="text;html=1;strokeColor=none;fillColor=none;align=center;verticalAlign=middle;whiteSpace=wrap;rounded=0;" vertex="1" parent="1">
          <mxGeometry x="450" y="170" width="220" height="30" as="geometry" />
        </mxCell>
      </root>
    </mxGraphModel>
  </diagram>
</mxfile>
